<?xml version="1.0" encoding="UTF-8" standalone="no"?>
<!-- Created with Inkscape (http://www.inkscape.org/) -->

<svg
   xmlns:dc="http://purl.org/dc/elements/1.1/"
   xmlns:cc="http://creativecommons.org/ns#"
   xmlns:rdf="http://www.w3.org/1999/02/22-rdf-syntax-ns#"
   xmlns:svg="http://www.w3.org/2000/svg"
   xmlns="http://www.w3.org/2000/svg"
   xmlns:xlink="http://www.w3.org/1999/xlink"
   xmlns:sodipodi="http://sodipodi.sourceforge.net/DTD/sodipodi-0.dtd"
   xmlns:inkscape="http://www.inkscape.org/namespaces/inkscape"
   width="386.22046"
   height="538.58264"
   id="svg2"
   version="1.1"
   inkscape:version="0.48.4 r9939"
   sodipodi:docname="staff.svg">
  <defs
     id="defs4">
    <filter
       inkscape:collect="always"
       id="filter4240"
       x="-0.060874338"
       width="1.1217487"
       y="-0.14903193"
       height="1.2980639">
      <feGaussianBlur
         inkscape:collect="always"
         stdDeviation="1.0166697"
         id="feGaussianBlur4242" />
    </filter>
    <filter
       inkscape:collect="always"
       id="filter4426"
       x="-0.020883645"
       width="1.0417673"
       y="-0.12039322"
       height="1.2407864">
      <feGaussianBlur
         inkscape:collect="always"
         stdDeviation="3.6671302"
         id="feGaussianBlur4428" />
    </filter>
  </defs>
  <sodipodi:namedview
     id="base"
     pagecolor="#ffffff"
     bordercolor="#666666"
     borderopacity="1.0"
     inkscape:pageopacity="1"
     inkscape:pageshadow="2"
     inkscape:zoom="0.70710678"
     inkscape:cx="372.73498"
     inkscape:cy="202.53773"
     inkscape:document-units="px"
     inkscape:current-layer="layer1"
     showgrid="false"
     inkscape:window-width="1366"
     inkscape:window-height="702"
     inkscape:window-x="0"
     inkscape:window-y="27"
     inkscape:window-maximized="1"
     units="mm"
     borderlayer="true"
     inkscape:showpageshadow="false" />
  <metadata
     id="metadata7">
    <rdf:RDF>
      <cc:Work
         rdf:about="">
        <dc:format>image/svg+xml</dc:format>
        <dc:type
           rdf:resource="http://purl.org/dc/dcmitype/StillImage" />
        <dc:title></dc:title>
      </cc:Work>
    </rdf:RDF>
  </metadata>
  <g
     inkscape:label="Layer 1"
     inkscape:groupmode="layer"
     id="layer1"
     transform="translate(0,-513.77952)">
    <rect
       transform="matrix(1,0,0,-1,0,-8)"
       style="opacity:0.79706894;color:#000000;fill:#2e3436;fill-opacity:1;fill-rule:nonzero;stroke:none;stroke-width:2.5;marker:none;visibility:visible;display:inline;overflow:visible;filter:url(#filter4426);enable-background:accumulate"
       id="rect4412"
       width="421.43564"
       height="73.103058"
       x="-25.455845"
       y="-788.03625" />
    <image
       sodipodi:absref="/home/rlerch/flockgen/templates/background/prague-garrett.jpg"
       xlink:href="background/prague-garrett.jpg"
       width="405.45807"
       height="270.30539"
       id="image4805"
       x="-12.195616"
       y="511.08289" />
    <rect
       style="color:#000000;fill:#a40000;fill-opacity:1;fill-rule:nonzero;stroke:none;stroke-width:2.50000000000000000;marker:none;visibility:visible;display:inline;overflow:visible;enable-background:accumulate"
       id="rect4406"
       width="421.43564"
       height="62.396946"
       x="-25.455845"
       y="997.03625" />
    <text
       sodipodi:linespacing="125%"
       id="text2991"
       y="836.18921"
       x="193.08977"
       style="font-size:27.94453430000000083px;font-style:normal;font-variant:normal;font-weight:normal;font-stretch:normal;text-align:center;line-height:125%;letter-spacing:0px;word-spacing:0px;text-anchor:middle;fill:#204a87;fill-opacity:1;stroke:none;font-family:Comfortaa;-inkscape-font-specification:Comfortaa"
       xml:space="preserve"><tspan
         y="836.18921"
         x="193.08977"
         id="tspan2993"
         sodipodi:role="line">***firstname***</tspan><tspan
         id="tspan2995"
         y="871.11987"
         x="193.08977"
         sodipodi:role="line" /></text>
    <text
       xml:space="preserve"
       style="font-size:27.94453430000000083px;font-style:normal;font-variant:normal;font-weight:normal;font-stretch:normal;text-align:center;line-height:125%;letter-spacing:0px;word-spacing:0px;text-anchor:middle;fill:#204a87;fill-opacity:1;stroke:none;font-family:Comfortaa;-inkscape-font-specification:Comfortaa"
       x="193.08977"
       y="866.46106"
       id="text2985"
       sodipodi:linespacing="125%"><tspan
         sodipodi:role="line"
         id="tspan2987"
         x="193.08977"
         y="866.46106">***lastname***</tspan><tspan
         sodipodi:role="line"
         x="193.08977"
         y="901.39172"
         id="tspan2989" /></text>
    <text
       sodipodi:linespacing="125%"
       id="text2997"
       y="898.99805"
       x="193.09877"
       style="font-size:15.64754867999999988px;font-style:normal;font-variant:normal;font-weight:normal;font-stretch:normal;text-align:center;line-height:125%;letter-spacing:0px;word-spacing:0px;text-anchor:middle;fill:#204a87;fill-opacity:1;stroke:none;font-family:Comfortaa;-inkscape-font-specification:Comfortaa"
       xml:space="preserve"><tspan
         y="898.99805"
         x="193.09877"
         id="tspan2999"
         sodipodi:role="line">***twitter***</tspan><tspan
         id="tspan3001"
         y="918.5575"
         x="193.09877"
         sodipodi:role="line" /></text>
    <rect
       y="-997.03625"
       x="-25.455845"
       height="73.103058"
       width="421.43564"
       id="rect4408"
       style="color:#000000;fill:#ededed;fill-opacity:1;fill-rule:nonzero;stroke:none;stroke-width:2.50000000000000000;marker:none;visibility:visible;display:inline;overflow:visible;enable-background:accumulate"
       transform="scale(1,-1)" />
    <text
       sodipodi:linespacing="125%"
       id="text3020"
       y="952.10083"
       x="193.10788"
       style="font-size:12.02141094px;font-style:normal;font-variant:normal;font-weight:normal;font-stretch:normal;text-align:center;line-height:125%;letter-spacing:0px;word-spacing:0px;writing-mode:lr-tb;text-anchor:middle;fill:#000000;fill-opacity:1;stroke:none;font-family:Nimbus Mono L;-inkscape-font-specification:Nimbus Mono L"
       xml:space="preserve"><tspan
         y="952.10083"
         x="193.10788"
         id="tspan3022"
         sodipodi:role="line">***stuff1***</tspan><tspan
         id="tspan3024"
         y="967.12756"
         x="193.10788"
         sodipodi:role="line" /></text>
    <text
       sodipodi:linespacing="125%"
       id="text3026"
       y="965.60626"
       x="193.10788"
       style="font-size:12.02141094px;font-style:normal;font-variant:normal;font-weight:normal;font-stretch:normal;text-align:center;line-height:125%;letter-spacing:0px;word-spacing:0px;writing-mode:lr-tb;text-anchor:middle;fill:#000000;fill-opacity:1;stroke:none;font-family:Nimbus Mono L;-inkscape-font-specification:Nimbus Mono L"
       xml:space="preserve"><tspan
         y="965.60626"
         x="193.10788"
         id="tspan3028"
         sodipodi:role="line">***stuff2***</tspan><tspan
         id="tspan3030"
         y="980.633"
         x="193.10788"
         sodipodi:role="line" /></text>
    <text
       xml:space="preserve"
       style="font-size:12.02141094px;font-style:normal;font-variant:normal;font-weight:normal;font-stretch:normal;text-align:center;line-height:125%;letter-spacing:0px;word-spacing:0px;writing-mode:lr-tb;text-anchor:middle;fill:#000000;fill-opacity:1;stroke:none;font-family:Nimbus Mono L;-inkscape-font-specification:Nimbus Mono L"
       x="193.10788"
       y="977.86102"
       id="text3003"
       sodipodi:linespacing="125%"><tspan
         sodipodi:role="line"
         id="tspan3005"
         x="193.10788"
         y="977.86102">***stuff3***</tspan><tspan
         sodipodi:role="line"
         x="193.10788"
         y="992.88776"
         id="tspan3007" /></text>
    <text
       xml:space="preserve"
       style="font-size:117.69381714px;font-style:normal;font-weight:normal;line-height:125%;letter-spacing:0px;word-spacing:0px;fill:#000000;fill-opacity:1;stroke:none;font-family:Sans"
       x="-899.05377"
       y="209.21523"
       id="text3019"
       sodipodi:linespacing="125%"><tspan
         sodipodi:role="line"
         id="tspan3021"
         x="-899.05377"
         y="209.21523">FLOCK</tspan></text>
    <text
       sodipodi:linespacing="125%"
       id="text3023"
       y="1036.6808"
       x="143.69153"
       style="font-size:32.5286026px;font-style:normal;font-variant:normal;font-weight:normal;font-stretch:normal;line-height:125%;letter-spacing:0px;word-spacing:0px;fill:#ffffff;fill-opacity:1;stroke:none;font-family:Comfortaa;-inkscape-font-specification:Comfortaa"
       xml:space="preserve"><tspan
         y="1036.6808"
         x="143.69153"
         id="tspan3025"
         sodipodi:role="line"
         style="font-weight:bold;fill:#ffffff;fill-opacity:1">STAFF</tspan></text>
    <g
       transform="matrix(0.38425005,0,0,0.38470138,42.454852,643.72913)"
       id="g4664"
       inkscape:export-xdpi="90"
       inkscape:export-ydpi="90">
      <g
         style="fill:#294172;stroke:#294172;stroke-width:57.01026535;stroke-miterlimit:4;stroke-dasharray:none"
         id="g4640"
         transform="matrix(0.38325254,0,0,0.37994162,431.6816,18.724405)">
        <path
           style="font-size:medium;font-style:normal;font-variant:normal;font-weight:normal;font-stretch:normal;text-indent:0;text-align:start;text-decoration:none;line-height:normal;letter-spacing:normal;word-spacing:normal;text-transform:none;direction:ltr;block-progression:tb;writing-mode:lr-tb;text-anchor:start;baseline-shift:baseline;color:#000000;fill:#294172;fill-opacity:1;fill-rule:nonzero;stroke:#294172;stroke-width:24.66274452;stroke-linecap:round;stroke-linejoin:round;stroke-miterlimit:4;stroke-opacity:1;stroke-dasharray:none;stroke-dashoffset:0;visibility:visible;display:inline;overflow:visible;enable-background:accumulate;font-family:sans-serif"
           d="m 383.60156,1189.3594 c -21.332,0 -38.62289,17.2934 -38.62304,38.625 -6.1e-4,3e-4 -0.003,-4e-4 0,0.035 l 0,20.4434 0.0195,0.01 -16.17578,0 c -5.04341,0 -9.11712,3.9644 -9.11719,8.998 0,5.0025 4.03231,8.9824 9.02148,8.9824 l 13.38477,0 c 1.59003,-3e-4 2.88078,1.2864 2.88086,2.873 l 0,17.7129 c -0.0197,11.2452 -9.14149,20.3536 -20.38672,20.3535 -3.80954,2e-4 -4.75092,-0.4981 -7.35156,-0.498 -5.46397,-10e-5 -9.11916,3.6621 -9.11914,8.6972 10e-4,4.1653 3.57237,7.7459 7.93945,8.8887 2.99602,0.7843 5.29511,1.1484 8.53125,1.1485 21.33071,-10e-5 38.62308,-17.294 38.62305,-38.6231 10e-4,0 0.005,4e-4 0.002,-0.035 l 0,-20.5313 16.27148,0 c 4.98838,3e-4 9.02159,-3.983 9.02149,-8.9883 -0.004,-5.0011 -4.03228,-8.9922 -9.02149,-8.9922 l -13.38476,0 -0.0215,-0.01 c -1.59231,0 -2.87887,-1.2893 -2.8789,-2.8789 l 0,-17.6231 c 0.0198,-11.247 9.13739,-20.3535 20.38281,-20.3535 3.8121,0 4.75201,0.498 7.35547,0.4981 5.46255,-10e-5 9.11848,-3.6602 9.11719,-8.6954 -10e-4,-4.1668 -3.57041,-7.7462 -7.9375,-8.8906 -2.99765,-0.7843 -5.29593,-1.1484 -8.53321,-1.1484 z m 262.81055,8.8847 a 9.0855472,9.0855472 0 0 0 -3.29688,0.5391 c 0,0 -2.63021,0.904 -5.69335,2.3164 -3.06317,1.4124 -6.59622,2.7399 -10.15821,6.8867 -7.7418,9.0129 -11.26562,20.6353 -11.26562,30.8614 l 0,77.5644 a 9.0855472,9.0855472 0 1 0 18.16797,0 l 0,-31.4433 c 0.93238,-0.1446 1.93472,-0.2868 2.99414,-0.4083 4.46429,-0.5119 9.92038,0.08 10.02929,0.127 1.70242,0.7354 4.60671,4.5033 7.72266,9.7793 1.87385,3.1728 2.02639,10.6 6.86523,19.3906 2.82446,5.1311 6.72657,8.7422 6.72657,8.7422 a 9.0855472,9.0855472 0 1 0 13.38086,-12.291 c 0,0 -4.16575,-5.1698 -4.18946,-5.2129 -1.86129,-3.3814 -1.94692,-11.0783 -7.13867,-19.8691 -2.51484,-4.2582 -5.64092,-10.6617 -12.10156,-14.9922 l 9.61328,-6.461 a 9.0855472,9.0855472 0 0 0 -5.28711,-16.6914 9.0855472,9.0855472 0 0 0 -4.84766,1.6114 l -23.76757,15.9746 0,-25.8203 c 0,-4.9589 3.07893,-14.5974 6.88086,-19.0235 -0.612,0.7125 1.81926,-1.2272 3.98242,-2.2246 2.16315,-0.9974 4.02148,-1.6445 4.02148,-1.6445 a 9.0855472,9.0855472 0 0 0 -2.63867,-17.711 z m -232.42773,12.1075 a 9.085547,9.085547 0 0 0 -8.94727,9.2129 l 0,64.6757 c 0,9.8304 2.62236,22.2906 11.74609,31.3789 5.01461,4.9952 10.31845,6.0919 14.86524,7.3106 4.54679,1.2187 8.42187,1.7793 8.42187,1.7793 a 9.085547,9.085547 0 1 0 2.62696,-17.9785 c 0,0 -2.93725,-0.4366 -6.34375,-1.3496 -3.4065,-0.9131 -7.1982,-3.0832 -6.74805,-2.6348 -3.41204,-3.3988 -6.40039,-13.1513 -6.40039,-18.5059 l 0,-64.6757 a 9.085547,9.085547 0 0 0 -9.2207,-9.2129 z m 76.47656,32.914 c -21.35685,0 -38.41992,18.1261 -38.41992,39.7989 l 0,2.7636 c 0,21.6728 17.06307,39.7989 38.41992,39.7989 21.35684,0 38.41992,-18.1261 38.41992,-39.7989 l 0,-2.7636 c 0,-21.6728 -17.06308,-39.7989 -38.41992,-39.7989 z m 83.99218,0 c -19.69319,0 -38.41992,16.4122 -38.41992,38.3008 l 0,5.7598 c 0,21.0811 17.31227,38.3008 38.41992,38.3008 12.35355,0 25.78556,-4.3014 33.16602,-16.8672 a 9.085547,9.085547 0 1 0 -15.66602,-9.2012 c -3.96756,6.7551 -8.19133,7.8984 -17.5,7.8984 -11.39604,0 -20.25195,-8.8412 -20.25195,-20.1308 l 0,-5.7598 c 0,-10.4821 11.75732,-20.1309 20.25195,-20.1309 7.86333,0 10.91884,0.7903 14.13477,6.2657 a 9.085547,9.085547 0 1 0 15.66797,-9.2012 c -6.62525,-11.2801 -18.88013,-15.2344 -29.80274,-15.2344 z m -83.99218,18.1699 c 11.14685,0 20.25195,9.2698 20.25195,21.629 l 0,2.7636 c 0,12.3592 -9.1051,21.6289 -20.25195,21.6289 -11.14686,0 -20.25,-9.2697 -20.25,-21.6289 l 0,-2.7636 c 0,-12.3592 9.10314,-21.629 20.25,-21.629 z"
           transform="matrix(2.3115945,0,0,2.3115945,-1250.4751,-2437.663)"
           id="path4642"
           inkscape:connector-curvature="0" />
      </g>
      <g
         transform="matrix(0.38325254,0,0,0.37994162,431.6816,18.724405)"
         id="g4622"
         style="fill:#294172;stroke:#ffffff;stroke-width:46.64476013;stroke-miterlimit:4;stroke-dasharray:none">
        <path
           inkscape:connector-curvature="0"
           id="path4624"
           transform="matrix(2.3115945,0,0,2.3115945,-1250.4751,-2437.663)"
           d="m 383.60156,1189.3594 c -21.332,0 -38.62289,17.2934 -38.62304,38.625 -6.1e-4,3e-4 -0.003,-4e-4 0,0.035 l 0,20.4434 0.0195,0.01 -16.17578,0 c -5.04341,0 -9.11712,3.9644 -9.11719,8.998 0,5.0025 4.03231,8.9824 9.02148,8.9824 l 13.38477,0 c 1.59003,-3e-4 2.88078,1.2864 2.88086,2.873 l 0,17.7129 c -0.0197,11.2452 -9.14149,20.3536 -20.38672,20.3535 -3.80954,2e-4 -4.75092,-0.4981 -7.35156,-0.498 -5.46397,-10e-5 -9.11916,3.6621 -9.11914,8.6972 10e-4,4.1653 3.57237,7.7459 7.93945,8.8887 2.99602,0.7843 5.29511,1.1484 8.53125,1.1485 21.33071,-10e-5 38.62308,-17.294 38.62305,-38.6231 10e-4,0 0.005,4e-4 0.002,-0.035 l 0,-20.5313 16.27148,0 c 4.98838,3e-4 9.02159,-3.983 9.02149,-8.9883 -0.004,-5.0011 -4.03228,-8.9922 -9.02149,-8.9922 l -13.38476,0 -0.0215,-0.01 c -1.59231,0 -2.87887,-1.2893 -2.8789,-2.8789 l 0,-17.6231 c 0.0198,-11.247 9.13739,-20.3535 20.38281,-20.3535 3.8121,0 4.75201,0.498 7.35547,0.4981 5.46255,-10e-5 9.11848,-3.6602 9.11719,-8.6954 -10e-4,-4.1668 -3.57041,-7.7462 -7.9375,-8.8906 -2.99765,-0.7843 -5.29593,-1.1484 -8.53321,-1.1484 z m 262.81055,8.8847 a 9.0855472,9.0855472 0 0 0 -3.29688,0.5391 c 0,0 -2.63021,0.904 -5.69335,2.3164 -3.06317,1.4124 -6.59622,2.7399 -10.15821,6.8867 -7.7418,9.0129 -11.26562,20.6353 -11.26562,30.8614 l 0,77.5644 a 9.0855472,9.0855472 0 1 0 18.16797,0 l 0,-31.4433 c 0.93238,-0.1446 1.93472,-0.2868 2.99414,-0.4083 4.46429,-0.5119 9.92038,0.08 10.02929,0.127 1.70242,0.7354 4.60671,4.5033 7.72266,9.7793 1.87385,3.1728 2.02639,10.6 6.86523,19.3906 2.82446,5.1311 6.72657,8.7422 6.72657,8.7422 a 9.0855472,9.0855472 0 1 0 13.38086,-12.291 c 0,0 -4.16575,-5.1698 -4.18946,-5.2129 -1.86129,-3.3814 -1.94692,-11.0783 -7.13867,-19.8691 -2.51484,-4.2582 -5.64092,-10.6617 -12.10156,-14.9922 l 9.61328,-6.461 a 9.0855472,9.0855472 0 0 0 -5.28711,-16.6914 9.0855472,9.0855472 0 0 0 -4.84766,1.6114 l -23.76757,15.9746 0,-25.8203 c 0,-4.9589 3.07893,-14.5974 6.88086,-19.0235 -0.612,0.7125 1.81926,-1.2272 3.98242,-2.2246 2.16315,-0.9974 4.02148,-1.6445 4.02148,-1.6445 a 9.0855472,9.0855472 0 0 0 -2.63867,-17.711 z m -232.42773,12.1075 a 9.085547,9.085547 0 0 0 -8.94727,9.2129 l 0,64.6757 c 0,9.8304 2.62236,22.2906 11.74609,31.3789 5.01461,4.9952 10.31845,6.0919 14.86524,7.3106 4.54679,1.2187 8.42187,1.7793 8.42187,1.7793 a 9.085547,9.085547 0 1 0 2.62696,-17.9785 c 0,0 -2.93725,-0.4366 -6.34375,-1.3496 -3.4065,-0.9131 -7.1982,-3.0832 -6.74805,-2.6348 -3.41204,-3.3988 -6.40039,-13.1513 -6.40039,-18.5059 l 0,-64.6757 a 9.085547,9.085547 0 0 0 -9.2207,-9.2129 z m 76.47656,32.914 c -21.35685,0 -38.41992,18.1261 -38.41992,39.7989 l 0,2.7636 c 0,21.6728 17.06307,39.7989 38.41992,39.7989 21.35684,0 38.41992,-18.1261 38.41992,-39.7989 l 0,-2.7636 c 0,-21.6728 -17.06308,-39.7989 -38.41992,-39.7989 z m 83.99218,0 c -19.69319,0 -38.41992,16.4122 -38.41992,38.3008 l 0,5.7598 c 0,21.0811 17.31227,38.3008 38.41992,38.3008 12.35355,0 25.78556,-4.3014 33.16602,-16.8672 a 9.085547,9.085547 0 1 0 -15.66602,-9.2012 c -3.96756,6.7551 -8.19133,7.8984 -17.5,7.8984 -11.39604,0 -20.25195,-8.8412 -20.25195,-20.1308 l 0,-5.7598 c 0,-10.4821 11.75732,-20.1309 20.25195,-20.1309 7.86333,0 10.91884,0.7903 14.13477,6.2657 a 9.085547,9.085547 0 1 0 15.66797,-9.2012 c -6.62525,-11.2801 -18.88013,-15.2344 -29.80274,-15.2344 z m -83.99218,18.1699 c 11.14685,0 20.25195,9.2698 20.25195,21.629 l 0,2.7636 c 0,12.3592 -9.1051,21.6289 -20.25195,21.6289 -11.14686,0 -20.25,-9.2697 -20.25,-21.6289 l 0,-2.7636 c 0,-12.3592 9.10314,-21.629 20.25,-21.629 z"
           style="font-size:medium;font-style:normal;font-variant:normal;font-weight:normal;font-stretch:normal;text-indent:0;text-align:start;text-decoration:none;line-height:normal;letter-spacing:normal;word-spacing:normal;text-transform:none;direction:ltr;block-progression:tb;writing-mode:lr-tb;text-anchor:start;baseline-shift:baseline;color:#000000;fill:#294172;fill-opacity:1;fill-rule:nonzero;stroke:#ffffff;stroke-width:20.17860985;stroke-linecap:round;stroke-linejoin:round;stroke-miterlimit:4;stroke-opacity:1;stroke-dasharray:none;stroke-dashoffset:0;visibility:visible;display:inline;overflow:visible;enable-background:accumulate;font-family:sans-serif" />
      </g>
      <g
         transform="matrix(0.38325254,0,0,0.37994162,431.6816,-16.406433)"
         id="g5167"
         style="fill:#3c6eb4">
        <path
           inkscape:connector-curvature="0"
           id="path5169"
           d="m -363.74384,404.11743 c -49.31094,0 -89.28046,39.97533 -89.28081,89.28534 -10e-4,6.9e-4 -0.007,-9.3e-4 0,0.0809 l 0,47.25685 0.0451,0.0231 -37.39185,0 c -11.65832,0 -21.07508,9.16408 -21.07524,20.79973 0,11.56375 9.32106,20.76366 20.854,20.76366 l 30.94016,0 c 3.6755,-6.9e-4 6.65919,2.97364 6.65938,6.64121 l 0,40.94505 c -0.0455,25.99434 -21.13142,47.04927 -47.12583,47.04903 -8.80611,4.7e-4 -10.9822,-1.1514 -16.99383,-1.15117 -12.63048,-2.3e-4 -21.0798,8.46529 -21.07975,20.1044 0.002,9.62848 8.25787,17.90538 18.35279,20.54707 6.92558,1.81298 12.24015,2.65464 19.72079,2.65487 49.30795,-2.3e-4 89.2809,-39.97672 89.28083,-89.28095 0.002,0 0.0116,9.3e-4 0.005,-0.0809 l 0,-47.46004 37.61307,0 c 11.53111,7e-4 20.85425,-9.20708 20.85402,-20.7773 -0.009,-11.56052 -9.32099,-20.78632 -20.85402,-20.78632 l -30.94014,0 -0.0497,-0.0231 c -3.68078,0 -6.65478,-2.98033 -6.65485,-6.65485 l 0,-40.73746 c 0.0458,-25.9985 21.12194,-47.04904 47.11679,-47.04904 8.81203,0 10.98472,1.15118 17.00287,1.15141 12.6272,-2.3e-4 21.07822,-8.4609 21.07524,-20.10024 -0.002,-9.63195 -8.25334,-17.90607 -18.34828,-20.55146 -6.92935,-1.81298 -12.24204,-2.65464 -19.72532,-2.65464 z m 607.51142,20.53782 a 21.002101,21.002101 0 0 0 -7.62105,1.24618 c 0,0 -6.07998,2.08968 -13.16072,5.35458 -7.0808,3.2649 -15.24778,6.33354 -23.48166,15.91926 -17.8959,20.83417 -26.04155,47.70044 -26.04155,71.33904 l 0,179.29744 a 21.002101,21.002101 0 1 0 41.99698,0 l 0,-72.68416 c 2.15529,-0.33426 4.47229,-0.66296 6.92124,-0.94382 10.31963,-1.18331 22.9319,0.18493 23.18365,0.29357 3.93531,1.69995 10.64885,10.4098 17.85166,22.60578 4.33158,7.33422 4.68419,24.5029 15.86963,44.8232 6.52901,11.86102 15.5491,20.20842 15.5491,20.20842 a 21.002101,21.002101 0 1 0 30.93112,-28.41181 c 0,0 -9.62952,-11.95048 -9.68433,-12.05011 -4.30255,-7.81642 -4.50049,-25.60853 -16.50171,-45.9293 -5.81329,-9.84323 -13.03952,-24.64553 -27.9739,-34.65589 l 22.22201,-14.93521 a 21.002101,21.002101 0 0 0 -12.22166,-38.58375 21.002101,21.002101 0 0 0 -11.20582,3.72491 l -54.94099,36.92679 0,-59.68606 c 0,-11.46297 7.11724,-33.74327 15.90576,-43.97462 -1.41469,1.64701 4.20539,-2.83679 9.20574,-5.14237 5.00033,-2.30558 9.29603,-3.80142 9.29603,-3.80142 a 21.002101,21.002101 0 0 0 -6.09953,-40.94065 z m -537.27866,27.98763 a 21.0021,21.0021 0 0 0 -20.68246,21.29649 l 0,149.50399 c 0,22.7239 6.06183,51.52683 27.15219,72.5353 11.59175,11.54687 23.85208,14.082 34.36241,16.89914 10.51033,2.81714 19.46795,4.11302 19.46795,4.11302 a 21.0021,21.0021 0 1 0 6.07246,-41.559 c 0,0 -6.78973,-1.00924 -14.66417,-3.11973 -7.87445,-2.11072 -16.63932,-7.12711 -15.59876,-6.09059 -7.88725,-7.85665 -14.7951,-30.40047 -14.7951,-42.77814 l 0,-149.50399 a 21.0021,21.0021 0 0 0 -21.31452,-21.29649 z m 176.78279,76.08382 c -49.36838,0 -88.81127,41.9002 -88.81127,91.99892 l 0,6.38832 c 0,50.09873 39.44289,91.99892 88.81127,91.99892 49.368355,0 88.811277,-41.90019 88.811277,-91.99892 l 0,-6.38832 c 0,-50.09872 -39.442922,-91.99892 -88.811277,-91.99892 z m 194.155863,0 c -45.52267,0 -88.811276,37.93836 -88.811276,88.53592 l 0,13.31432 c 0,48.73096 40.018948,88.53592 88.811276,88.53592 28.556397,0 59.605757,-9.94309 76.666387,-38.99012 a 21.0021,21.0021 0 1 0 -36.21348,-21.26945 c -9.17139,15.61506 -18.935037,18.2579 -40.452907,18.2579 -26.343024,0 -46.814297,-20.43727 -46.814297,-46.53425 l 0,-13.31432 c 0,-24.23036 27.178157,-46.53448 46.814297,-46.53448 18.17683,0 25.239927,1.82686 32.673857,14.48376 a 21.0021,21.0021 0 1 0 36.21799,-21.26944 C 131.00453,537.86744 102.67622,528.7267 77.427573,528.7267 z m -194.155863,42.00144 c 25.766999,0 46.814298,21.42802 46.814298,49.99748 l 0,6.38832 c 0,28.56946 -21.047299,49.99725 -46.814298,49.99725 -25.76702,0 -46.80979,-21.42779 -46.80979,-49.99725 l 0,-6.38832 c 0,-28.56946 21.04277,-49.99748 46.80979,-49.99748 z"
           style="font-size:medium;font-style:normal;font-variant:normal;font-weight:normal;font-stretch:normal;text-indent:0;text-align:start;text-decoration:none;line-height:normal;letter-spacing:normal;word-spacing:normal;text-transform:none;direction:ltr;block-progression:tb;writing-mode:lr-tb;text-anchor:start;baseline-shift:baseline;color:#000000;fill:#3c6eb4;fill-opacity:1;fill-rule:nonzero;stroke:none;visibility:visible;display:inline;overflow:visible;enable-background:accumulate;font-family:sans-serif" />
      </g>
    </g>
    <text
       xml:space="preserve"
       style="font-size:13.20154095px;font-style:normal;font-variant:normal;font-weight:bold;font-stretch:normal;line-height:125%;letter-spacing:0px;word-spacing:0px;fill:#ffffff;fill-opacity:1;stroke:none;font-family:Comfortaa;-inkscape-font-specification:Comfortaa Bold"
       x="113.19836"
       y="764.35046"
       id="text4216"
       sodipodi:linespacing="125%"><tspan
         sodipodi:role="line"
         id="tspan4218"
         x="113.19836"
         y="764.35046"
         style="font-style:normal;font-variant:normal;font-weight:bold;font-stretch:normal;fill:#ffffff;font-family:Comfortaa;-inkscape-font-specification:Comfortaa Bold">PRAHA, ČESKÁ REPUBLIKA</tspan></text>
  </g>
</svg>
